# Blender v2.77 (sub 0) OBJ File: ''
# www.blender.org
mtllib Coin.mtl
o Coin_Coin__CoinMat00
v -0.006441 -0.000303 0.007772
v -0.006441 -0.020406 0.006987
v -0.018856 -0.032931 0.006498
v -0.018856 0.032325 0.009045
v -0.006441 0.019800 0.008556
v -0.026666 0.026336 0.008811
v -0.037711 -0.000303 0.007772
v -0.036426 0.009444 0.008152
v -0.032659 0.018532 0.008507
v -0.032659 -0.019139 0.007037
v -0.036426 -0.010050 0.007391
v -0.026666 -0.026943 0.006732
v -0.009760 -0.036696 0.006351
v 0.000000 -0.020406 0.006987
v -0.009760 0.036089 0.009192
v 0.000000 0.019800 0.008556
v 0.000000 -0.037980 0.006301
v 0.006454 -0.020406 0.006987
v 0.009760 -0.036696 0.006351
v 0.000000 0.037373 0.009242
v 0.009760 0.036089 0.009192
v 0.006454 0.019800 0.008556
v 0.018856 -0.032931 0.006498
v 0.006454 -0.000303 0.007772
v 0.018856 0.032325 0.009045
v 0.026666 -0.026943 0.006732
v 0.026666 0.026336 0.008811
v 0.037711 -0.000303 0.007772
v 0.036426 -0.010050 0.007391
v 0.036426 0.009444 0.008152
v 0.032659 0.018532 0.008507
v 0.032659 -0.019139 0.007037
v -0.005065 -0.018869 0.002872
v -0.005065 -0.000141 0.003603
v 0.005079 -0.018869 0.002872
v 0.005079 -0.000141 0.003603
v -0.005065 0.018588 0.004333
v 0.005079 0.018588 0.004333
v 0.005079 0.018869 -0.002872
v -0.005065 0.018869 -0.002872
v 0.005079 0.000141 -0.003603
v -0.005065 0.000141 -0.003603
v 0.005079 -0.018588 -0.004333
v -0.005065 -0.018588 -0.004333
v 0.026666 -0.026336 -0.008811
v 0.032659 -0.018532 -0.008507
v 0.006454 0.000303 -0.007772
v 0.018856 -0.032325 -0.009045
v 0.036426 -0.009444 -0.008152
v 0.006454 -0.019800 -0.008556
v 0.009760 -0.036089 -0.009192
v 0.037711 0.000303 -0.007772
v 0.026666 0.026943 -0.006732
v 0.018856 0.032931 -0.006498
v 0.036426 0.010050 -0.007391
v 0.006454 0.020406 -0.006987
v 0.032659 0.019139 -0.007037
v 0.000000 -0.019800 -0.008556
v 0.000000 -0.037373 -0.009242
v 0.009760 0.036696 -0.006351
v 0.000000 0.020406 -0.006987
v -0.009760 -0.036089 -0.009192
v -0.006441 -0.019800 -0.008556
v 0.000000 0.037980 -0.006301
v -0.009760 0.036696 -0.006351
v -0.006441 0.020406 -0.006987
v -0.018856 -0.032325 -0.009045
v -0.006441 0.000303 -0.007772
v -0.018856 0.032931 -0.006498
v -0.026666 -0.026336 -0.008811
v -0.026666 0.026943 -0.006732
v -0.036426 0.010050 -0.007391
v -0.037711 0.000303 -0.007772
v -0.032659 0.019139 -0.007037
v -0.036426 -0.009444 -0.008152
v -0.032659 -0.018532 -0.008507
v -0.019826 0.034508 -0.003796
v -0.019826 0.034107 0.006474
v -0.028039 0.028212 -0.004042
v -0.010263 0.038066 0.006628
v -0.010263 0.038467 -0.003642
v -0.028039 0.027811 0.006228
v -0.034340 0.020005 -0.004362
v 0.000000 0.039416 0.006681
v 0.000000 0.039817 -0.003589
v -0.034340 0.019605 0.005908
v -0.038301 0.010449 -0.004735
v 0.010263 0.038066 0.006628
v 0.010263 0.038467 -0.003642
v -0.038301 0.010049 0.005535
v -0.039652 0.000200 -0.005135
v 0.019826 0.034107 0.006474
v 0.019826 0.034508 -0.003796
v -0.039652 -0.000200 0.005135
v -0.038301 -0.010049 -0.005535
v 0.028039 0.027811 0.006228
v 0.028039 0.028212 -0.004042
v -0.038301 -0.010449 0.004735
v -0.034340 -0.019605 -0.005908
v 0.034340 0.019605 0.005908
v 0.034340 0.020005 -0.004362
v -0.034340 -0.020005 0.004362
v -0.028039 -0.027811 -0.006228
v 0.038301 0.010049 0.005535
v 0.038301 0.010449 -0.004735
v -0.028039 -0.028212 0.004042
v -0.019826 -0.034107 -0.006474
v 0.039652 -0.000200 0.005135
v 0.039652 0.000200 -0.005135
v -0.019826 -0.034508 0.003796
v -0.010263 -0.038066 -0.006628
v 0.038301 -0.010449 0.004735
v 0.038301 -0.010049 -0.005535
v -0.010263 -0.038467 0.003642
v 0.000000 -0.039416 -0.006681
v 0.034340 -0.020005 0.004362
v 0.034340 -0.019605 -0.005908
v 0.000000 -0.039817 0.003589
v 0.028039 -0.028212 0.004042
v 0.028039 -0.027811 -0.006228
v 0.019826 -0.034508 0.003796
v 0.019826 -0.034107 -0.006474
v 0.010263 -0.038467 0.003642
v 0.010263 -0.038066 -0.006628
v 0.000000 -0.039817 0.003589
v 0.000000 -0.039416 -0.006681
v 0.006454 -0.019800 -0.008556
v 0.005079 -0.018588 -0.004333
v 0.000000 -0.019800 -0.008556
v -0.005065 -0.018588 -0.004333
v -0.006441 -0.019800 -0.008556
v -0.006441 0.020406 -0.006987
v -0.005065 0.018869 -0.002872
v 0.000000 0.020406 -0.006987
v 0.005079 0.018869 -0.002872
v 0.006454 0.020406 -0.006987
v 0.006454 -0.020406 0.006987
v 0.000000 -0.020406 0.006987
v 0.005079 -0.018869 0.002872
v -0.005065 -0.018869 0.002872
v -0.006441 -0.020406 0.006987
v -0.006441 0.019800 0.008556
v 0.000000 0.019800 0.008556
v -0.005065 0.018588 0.004333
v 0.006454 0.019800 0.008556
v 0.005079 0.018588 0.004333
v 0.005079 -0.000141 0.003603
v 0.005079 0.018588 0.004333
v 0.006454 -0.000303 0.007772
v 0.005079 -0.018869 0.002872
v 0.006454 0.019800 0.008556
v 0.006454 -0.020406 0.006987
v -0.005065 -0.000141 0.003603
v -0.005065 -0.018869 0.002872
v -0.006441 -0.000303 0.007772
v -0.005065 0.018588 0.004333
v -0.006441 -0.020406 0.006987
v -0.006441 0.019800 0.008556
v -0.006441 0.000303 -0.007772
v -0.005065 -0.018588 -0.004333
v -0.005065 0.000141 -0.003603
v -0.006441 0.000303 -0.007772
v -0.006441 -0.019800 -0.008556
v -0.005065 0.018869 -0.002872
v -0.006441 0.020406 -0.006987
v 0.005079 0.000141 -0.003603
v 0.005079 -0.018588 -0.004333
v 0.006454 0.000303 -0.007772
v 0.005079 0.018869 -0.002872
v 0.006454 -0.019800 -0.008556
v 0.006454 0.020406 -0.006987
v 0.019826 0.034508 -0.003796
v 0.018856 0.032931 -0.006498
v 0.028039 0.028212 -0.004042
v 0.009760 0.036696 -0.006351
v 0.010263 0.038467 -0.003642
v 0.026666 0.026943 -0.006732
v 0.034340 0.020005 -0.004362
v 0.000000 0.037980 -0.006301
v 0.000000 0.039817 -0.003589
v 0.032659 0.019139 -0.007037
v 0.038301 0.010449 -0.004735
v -0.009760 0.036696 -0.006351
v -0.010263 0.038467 -0.003642
v 0.036426 0.010050 -0.007391
v 0.039652 0.000200 -0.005135
v -0.019826 0.034508 -0.003796
v -0.018856 0.032931 -0.006498
v 0.037711 0.000303 -0.007772
v 0.038301 -0.010049 -0.005535
v -0.026666 0.026943 -0.006732
v -0.028039 0.028212 -0.004042
v 0.036426 -0.009444 -0.008152
v 0.034340 -0.019605 -0.005908
v -0.032659 0.019139 -0.007037
v -0.034340 0.020005 -0.004362
v 0.032659 -0.018532 -0.008507
v 0.028039 -0.027811 -0.006228
v -0.036426 0.010050 -0.007391
v -0.038301 0.010449 -0.004735
v 0.026666 -0.026336 -0.008811
v 0.019826 -0.034107 -0.006474
v -0.037711 0.000303 -0.007772
v -0.039652 0.000200 -0.005135
v 0.018856 -0.032325 -0.009045
v 0.010263 -0.038066 -0.006628
v -0.036426 -0.009444 -0.008152
v -0.038301 -0.010049 -0.005535
v 0.009760 -0.036089 -0.009192
v 0.000000 -0.039416 -0.006681
v -0.032659 -0.018532 -0.008507
v -0.034340 -0.019605 -0.005908
v 0.000000 -0.037373 -0.009242
v -0.026666 -0.026336 -0.008811
v -0.028039 -0.027811 -0.006228
v -0.018856 -0.032325 -0.009045
v -0.019826 -0.034107 -0.006474
v -0.009760 -0.036089 -0.009192
v -0.010263 -0.038066 -0.006628
v 0.000000 -0.037373 -0.009242
v 0.000000 -0.039416 -0.006681
v 0.019826 0.034107 0.006474
v 0.028039 0.027811 0.006228
v 0.018856 0.032325 0.009045
v 0.009760 0.036089 0.009192
v 0.010263 0.038066 0.006628
v 0.034340 0.019605 0.005908
v 0.026666 0.026336 0.008811
v 0.000000 0.037373 0.009242
v 0.000000 0.039416 0.006681
v 0.038301 0.010049 0.005535
v 0.032659 0.018532 0.008507
v -0.010263 0.038066 0.006628
v -0.009760 0.036089 0.009192
v 0.039652 -0.000200 0.005135
v 0.036426 0.009444 0.008152
v -0.019826 0.034107 0.006474
v -0.018856 0.032325 0.009045
v 0.038301 -0.010449 0.004735
v 0.036426 -0.010050 0.007391
v 0.037711 -0.000303 0.007772
v -0.028039 0.027811 0.006228
v -0.026666 0.026336 0.008811
v 0.032659 -0.019139 0.007037
v 0.034340 -0.020005 0.004362
v -0.034340 0.019605 0.005908
v -0.032659 0.018532 0.008507
v 0.026666 -0.026943 0.006732
v 0.028039 -0.028212 0.004042
v -0.038301 0.010049 0.005535
v -0.036426 0.009444 0.008152
v 0.018856 -0.032931 0.006498
v 0.019826 -0.034508 0.003796
v -0.039652 -0.000200 0.005135
v -0.037711 -0.000303 0.007772
v 0.009760 -0.036696 0.006351
v 0.010263 -0.038467 0.003642
v -0.036426 -0.010050 0.007391
v -0.038301 -0.010449 0.004735
v 0.000000 -0.037980 0.006301
v 0.000000 -0.039817 0.003589
v -0.032659 -0.019139 0.007037
v -0.034340 -0.020005 0.004362
v -0.026666 -0.026943 0.006732
v -0.028039 -0.028212 0.004042
v -0.018856 -0.032931 0.006498
v -0.019826 -0.034508 0.003796
v -0.009760 -0.036696 0.006351
v -0.010263 -0.038467 0.003642
v 0.000000 -0.037980 0.006301
v 0.000000 -0.039817 0.003589
vt 0.421881 0.499992
vt 0.421881 0.773434
vt 0.254780 0.924651
vt 0.254780 0.075349
vt 0.421881 0.226566
vt 0.153216 0.153292
vt 0.009567 0.499992
vt 0.026276 0.373144
vt 0.075273 0.254856
vt 0.075273 0.745144
vt 0.026276 0.626856
vt 0.153216 0.846708
vt 0.373068 0.973632
vt 0.500008 0.773434
vt 0.373068 0.026368
vt 0.500008 0.226566
vt 0.499992 0.990356
vt 0.578119 0.773434
vt 0.626932 0.973632
vt 0.499992 0.009644
vt 0.626932 0.026368
vt 0.578119 0.226566
vt 0.745220 0.924651
vt 0.578119 0.499992
vt 0.745220 0.075349
vt 0.846784 0.846708
vt 0.846784 0.153292
vt 0.990433 0.499992
vt 0.973709 0.626856
vt 0.973709 0.373144
vt 0.924727 0.254856
vt 0.924727 0.745144
vt 0.453132 0.742184
vt 0.453132 0.499992
vt 0.546868 0.742184
vt 0.546868 0.499992
vt 0.453132 0.257816
vt 0.546868 0.257816
vt 0.453132 0.257816
vt 0.546868 0.257816
vt 0.453132 0.499992
vt 0.546868 0.499992
vt 0.453132 0.742184
vt 0.546868 0.742184
vt 0.153216 0.846708
vt 0.075273 0.745144
vt 0.421881 0.499992
vt 0.254780 0.924651
vt 0.026276 0.626856
vt 0.421881 0.773434
vt 0.373068 0.973632
vt 0.009567 0.499992
vt 0.153216 0.153292
vt 0.254780 0.075349
vt 0.026276 0.373144
vt 0.421881 0.226566
vt 0.075273 0.254856
vt 0.500008 0.773434
vt 0.499992 0.990356
vt 0.373068 0.026368
vt 0.500008 0.226566
vt 0.626932 0.973632
vt 0.578119 0.773434
vt 0.499992 0.009644
vt 0.626932 0.026368
vt 0.578119 0.226566
vt 0.745220 0.924651
vt 0.578119 0.499992
vt 0.745220 0.075349
vt 0.846784 0.846708
vt 0.846784 0.153292
vt 0.973709 0.373144
vt 0.990433 0.499992
vt 0.924727 0.254856
vt 0.973709 0.626856
vt 0.924727 0.745144
vt 0.093751 0.059892
vt 0.031250 0.059892
vt 0.093751 0.054688
vt 0.031250 0.065110
vt 0.093751 0.065110
vt 0.031250 0.054688
vt 0.093751 0.049485
vt 0.031250 0.070314
vt 0.093751 0.070314
vt 0.031250 0.049485
vt 0.093751 0.044266
vt 0.031250 0.075517
vt 0.093751 0.075517
vt 0.031250 0.044266
vt 0.093751 0.039063
vt 0.031250 0.080736
vt 0.093751 0.080736
vt 0.031250 0.039063
vt 0.093751 0.033860
vt 0.031250 0.085939
vt 0.093751 0.085939
vt 0.031250 0.033860
vt 0.093751 0.028641
vt 0.031250 0.091142
vt 0.093751 0.091142
vt 0.031250 0.028641
vt 0.093751 0.023438
vt 0.031250 0.096361
vt 0.093751 0.096361
vt 0.031250 0.023438
vt 0.093751 0.018235
vt 0.031250 0.101564
vt 0.093751 0.101564
vt 0.031250 0.018235
vt 0.093751 0.013016
vt 0.031250 0.106767
vt 0.093751 0.106767
vt 0.031250 0.013016
vt 0.093751 0.007813
vt 0.031250 0.111986
vt 0.093751 0.111986
vt 0.031250 0.007813
vt 0.031250 0.117189
vt 0.093751 0.117189
vt 0.031250 0.122393
vt 0.093751 0.122393
vt 0.031250 0.127611
vt 0.093751 0.127611
vt 0.031250 0.132815
vt 0.093751 0.132815
vt 0.421881 0.773434
vt 0.453132 0.742184
vt 0.500008 0.773434
vt 0.546868 0.742184
vt 0.578119 0.773434
vt 0.578119 0.226566
vt 0.546868 0.257816
vt 0.500008 0.226566
vt 0.453132 0.257816
vt 0.421881 0.226566
vt 0.578119 0.773434
vt 0.500008 0.773434
vt 0.546868 0.742184
vt 0.453132 0.742184
vt 0.421881 0.773434
vt 0.421881 0.226566
vt 0.500008 0.226566
vt 0.453132 0.257816
vt 0.578119 0.226566
vt 0.546868 0.257816
vt 0.546868 0.499992
vt 0.546868 0.257816
vt 0.578119 0.499992
vt 0.546868 0.742184
vt 0.578119 0.226566
vt 0.578119 0.773434
vt 0.453132 0.499992
vt 0.453132 0.742184
vt 0.421881 0.499992
vt 0.453132 0.257816
vt 0.421881 0.773434
vt 0.421881 0.226566
vt 0.578119 0.499992
vt 0.546868 0.742184
vt 0.546868 0.499992
vt 0.578119 0.499992
vt 0.578119 0.773434
vt 0.546868 0.257816
vt 0.578119 0.226566
vt 0.453132 0.499992
vt 0.453132 0.742184
vt 0.421881 0.499992
vt 0.453132 0.257816
vt 0.421881 0.773434
vt 0.421881 0.226566
vt 0.093751 0.080736
vt 0.117189 0.080736
vt 0.093751 0.085939
vt 0.117189 0.075517
vt 0.093751 0.075517
vt 0.117189 0.085939
vt 0.093751 0.091142
vt 0.117189 0.070314
vt 0.093751 0.070314
vt 0.117189 0.091142
vt 0.093751 0.096361
vt 0.117189 0.065110
vt 0.093751 0.065110
vt 0.117189 0.096361
vt 0.093751 0.101564
vt 0.093751 0.059892
vt 0.117189 0.059892
vt 0.117189 0.101564
vt 0.093751 0.106767
vt 0.117189 0.054688
vt 0.093751 0.054688
vt 0.117189 0.106767
vt 0.093751 0.111986
vt 0.117189 0.049485
vt 0.093751 0.049485
vt 0.117189 0.111986
vt 0.093751 0.117189
vt 0.117189 0.044266
vt 0.093751 0.044266
vt 0.117189 0.117189
vt 0.093751 0.122393
vt 0.117189 0.039063
vt 0.093751 0.039063
vt 0.117189 0.122393
vt 0.093751 0.127611
vt 0.117189 0.033860
vt 0.093751 0.033860
vt 0.117189 0.127611
vt 0.093751 0.132815
vt 0.117189 0.028641
vt 0.093751 0.028641
vt 0.117189 0.132815
vt 0.117189 0.023438
vt 0.093751 0.023438
vt 0.117189 0.018235
vt 0.093751 0.018235
vt 0.117189 0.013016
vt 0.093751 0.013016
vt 0.117189 0.007813
vt 0.093751 0.007813
vt 0.031250 0.080736
vt 0.031250 0.085939
vt 0.007813 0.080736
vt 0.007813 0.075517
vt 0.031250 0.075517
vt 0.031250 0.091142
vt 0.007813 0.085939
vt 0.007813 0.070314
vt 0.031250 0.070314
vt 0.031250 0.096361
vt 0.007813 0.091142
vt 0.031250 0.065110
vt 0.007813 0.065110
vt 0.031250 0.101564
vt 0.007813 0.096361
vt 0.031250 0.059892
vt 0.007813 0.059892
vt 0.031250 0.106767
vt 0.007813 0.106767
vt 0.007813 0.101564
vt 0.031250 0.054688
vt 0.007813 0.054688
vt 0.007813 0.111986
vt 0.031250 0.111986
vt 0.031250 0.049485
vt 0.007813 0.049485
vt 0.007813 0.117189
vt 0.031250 0.117189
vt 0.031250 0.044266
vt 0.007813 0.044266
vt 0.007813 0.122393
vt 0.031250 0.122393
vt 0.031250 0.039063
vt 0.007813 0.039063
vt 0.007813 0.127611
vt 0.031250 0.127611
vt 0.007813 0.033860
vt 0.031250 0.033860
vt 0.007813 0.132815
vt 0.031250 0.132815
vt 0.007813 0.028641
vt 0.031250 0.028641
vt 0.007813 0.023438
vt 0.031250 0.023438
vt 0.007813 0.018235
vt 0.031250 0.018235
vt 0.007813 0.013016
vt 0.031250 0.013016
vt 0.007813 0.007813
vt 0.031250 0.007813
vn 0.000000 0.039000 -0.999200
vn 0.000000 -0.039000 0.999200
vn 0.608800 -0.792700 -0.030900
vn 0.382700 -0.923200 -0.036000
vn 0.608800 -0.792800 -0.030900
vn 0.793400 -0.608300 -0.023700
vn 0.130500 -0.990700 -0.038700
vn 0.923900 -0.382400 -0.014900
vn -0.130500 -0.990700 -0.038700
vn 0.991400 -0.130500 -0.005100
vn -0.382700 -0.923200 -0.036000
vn 0.991400 0.130500 0.005100
vn -0.608800 -0.792700 -0.030900
vn 0.923900 0.382400 0.014900
vn -0.793400 -0.608300 -0.023700
vn 0.793400 0.608300 0.023700
vn -0.923900 -0.382400 -0.014900
vn 0.608800 0.792800 0.030900
vn -0.991400 -0.130500 -0.005100
vn 0.608800 0.792700 0.030900
vn 0.382700 0.923200 0.036000
vn -0.991400 0.130500 0.005100
vn 0.130500 0.990700 0.038700
vn -0.923900 0.382400 0.014900
vn -0.793400 0.608300 0.023700
vn -0.608800 0.792700 0.030900
vn -0.382700 0.923200 0.036000
vn -0.130500 0.990700 0.038700
vn 0.000000 -0.961200 0.275800
vn -0.000000 0.936800 0.349900
vn 0.000000 -0.936800 -0.349900
vn -0.000000 0.961200 -0.275800
vn 0.949700 0.012200 -0.312900
vn -0.949700 0.012200 -0.312900
vn -0.949700 -0.012200 0.312900
vn 0.949700 -0.012200 0.312900
vn -0.491800 -0.663500 0.563800
vn -0.309200 -0.768800 0.559700
vn -0.641000 -0.514400 0.569700
vn -0.105500 -0.823400 0.557600
vn -0.746400 -0.331900 0.576800
vn 0.105500 -0.823400 0.557600
vn -0.801000 -0.128400 0.584700
vn 0.309200 -0.768800 0.559700
vn -0.801000 0.082500 0.593000
vn 0.491800 -0.663500 0.563800
vn -0.746400 0.286000 0.600900
vn 0.641000 -0.514400 0.569700
vn -0.641000 0.468500 0.608000
vn 0.746400 -0.331900 0.576800
vn -0.491800 0.617500 0.613800
vn 0.801000 -0.128400 0.584700
vn -0.309200 0.722900 0.617900
vn 0.801000 0.082500 0.593000
vn -0.105500 0.777400 0.620100
vn 0.746400 0.286000 0.600900
vn 0.641000 0.468500 0.608000
vn 0.491800 0.617500 0.613800
vn 0.309200 0.722900 0.617900
vn 0.105500 0.777400 0.620100
vn -0.491800 -0.617500 -0.613800
vn -0.309200 -0.722900 -0.617900
vn -0.641000 -0.468500 -0.608000
vn -0.105500 -0.777400 -0.620100
vn -0.746400 -0.286000 -0.600900
vn 0.105500 -0.777400 -0.620100
vn -0.801000 -0.082500 -0.593000
vn 0.309200 -0.722900 -0.617900
vn -0.801000 0.128400 -0.584700
vn 0.491800 -0.617500 -0.613800
vn -0.746400 0.331900 -0.576800
vn 0.641000 -0.468500 -0.608000
vn -0.641000 0.514400 -0.569700
vn 0.746400 -0.286000 -0.600900
vn -0.491800 0.663500 -0.563800
vn 0.801000 -0.082500 -0.593000
vn -0.309200 0.768800 -0.559700
vn 0.801000 0.128400 -0.584700
vn -0.105500 0.823400 -0.557600
vn 0.746400 0.331900 -0.576800
vn 0.641000 0.514400 -0.569700
vn 0.491800 0.663500 -0.563800
vn 0.309200 0.768800 -0.559700
vn 0.105500 0.823400 -0.557600
usemtl Mat
s off
f 1/1/1 2/2/1 3/3/1
f 1/1/1 4/4/1 5/5/1
f 1/1/1 6/6/1 4/4/1
f 1/1/1 7/7/1 8/8/1
f 1/1/1 8/8/1 9/9/1
f 1/1/1 9/9/1 6/6/1
f 1/1/1 10/10/1 11/11/1
f 1/1/1 12/12/1 10/10/1
f 1/1/1 11/11/1 7/7/1
f 1/1/1 3/3/1 12/12/1
f 3/3/1 2/2/1 13/13/1
f 2/2/1 14/14/1 13/13/1
f 4/4/1 15/15/1 5/5/1
f 5/5/1 15/15/1 16/16/1
f 13/13/1 14/14/1 17/17/1
f 14/14/1 18/18/1 19/19/1
f 14/14/1 19/19/1 17/17/1
f 15/15/1 20/20/1 16/16/1
f 16/16/1 21/21/1 22/22/1
f 16/16/1 20/20/1 21/21/1
f 18/18/1 23/23/1 19/19/1
f 18/18/1 24/24/1 23/23/1
f 21/21/1 25/25/1 22/22/1
f 22/22/1 25/25/1 24/24/1
f 23/23/1 24/24/1 26/26/1
f 25/25/1 27/27/1 24/24/1
f 24/24/1 28/28/1 29/29/1
f 24/24/1 30/30/1 28/28/1
f 24/24/1 27/27/1 31/31/1
f 24/24/1 31/31/1 30/30/1
f 24/24/1 32/32/1 26/26/1
f 24/24/1 29/29/1 32/32/1
f 33/33/1 34/34/1 35/35/1
f 34/34/1 36/36/1 35/35/1
f 34/34/1 37/37/1 36/36/1
f 36/36/1 37/37/1 38/38/1
f 39/39/2 40/40/2 41/41/2
f 40/40/2 42/42/2 41/41/2
f 41/41/2 42/42/2 43/43/2
f 42/42/2 44/44/2 43/43/2
f 45/45/2 46/46/2 47/47/2
f 45/45/2 47/47/2 48/48/2
f 46/46/2 49/49/2 47/47/2
f 48/48/2 50/50/2 51/51/2
f 48/48/2 47/47/2 50/50/2
f 49/49/2 52/52/2 47/47/2
f 47/47/2 53/53/2 54/54/2
f 47/47/2 52/52/2 55/55/2
f 47/47/2 54/54/2 56/56/2
f 47/47/2 57/57/2 53/53/2
f 47/47/2 55/55/2 57/57/2
f 50/50/2 58/58/2 51/51/2
f 51/51/2 58/58/2 59/59/2
f 54/54/2 60/60/2 56/56/2
f 56/56/2 60/60/2 61/61/2
f 58/58/2 62/62/2 59/59/2
f 58/58/2 63/63/2 62/62/2
f 60/60/2 64/64/2 61/61/2
f 61/61/2 65/65/2 66/66/2
f 61/61/2 64/64/2 65/65/2
f 62/62/2 63/63/2 67/67/2
f 63/63/2 68/68/2 67/67/2
f 65/65/2 69/69/2 66/66/2
f 66/66/2 69/69/2 68/68/2
f 67/67/2 68/68/2 70/70/2
f 69/69/2 71/71/2 68/68/2
f 68/68/2 72/72/2 73/73/2
f 68/68/2 74/74/2 72/72/2
f 68/68/2 71/71/2 74/74/2
f 68/68/2 75/75/2 76/76/2
f 68/68/2 76/76/2 70/70/2
f 68/68/2 73/73/2 75/75/2
f 77/77/3 78/78/3 79/79/3
f 77/77/4 80/80/4 78/78/4
f 77/77/4 81/81/4 80/80/4
f 78/78/5 82/82/5 79/79/5
f 79/79/6 82/82/6 83/83/6
f 80/80/7 81/81/7 84/84/7
f 81/81/7 85/85/7 84/84/7
f 82/82/6 86/86/6 83/83/6
f 83/83/8 86/86/8 87/87/8
f 84/84/9 85/85/9 88/88/9
f 85/85/9 89/89/9 88/88/9
f 86/86/8 90/90/8 87/87/8
f 87/87/10 90/90/10 91/91/10
f 88/88/11 89/89/11 92/92/11
f 89/89/11 93/93/11 92/92/11
f 90/90/10 94/94/10 91/91/10
f 91/91/12 94/94/12 95/95/12
f 92/92/13 93/93/13 96/96/13
f 93/93/13 97/97/13 96/96/13
f 94/94/12 98/98/12 95/95/12
f 95/95/14 98/98/14 99/99/14
f 96/96/15 97/97/15 100/100/15
f 97/97/15 101/101/15 100/100/15
f 98/98/14 102/102/14 99/99/14
f 99/99/16 102/102/16 103/103/16
f 100/100/17 101/101/17 104/104/17
f 101/101/17 105/105/17 104/104/17
f 102/102/16 106/106/16 103/103/16
f 103/103/18 106/106/18 107/107/18
f 104/104/19 105/105/19 108/108/19
f 105/105/19 109/109/19 108/108/19
f 106/106/20 110/110/20 107/107/20
f 107/107/21 110/110/21 111/111/21
f 108/108/22 109/109/22 112/112/22
f 109/109/22 113/113/22 112/112/22
f 110/110/21 114/114/21 111/111/21
f 111/111/23 114/114/23 115/115/23
f 112/112/24 113/113/24 116/116/24
f 113/113/24 117/117/24 116/116/24
f 114/114/23 118/118/23 115/115/23
f 116/116/25 117/117/25 119/119/25
f 117/117/25 120/120/25 119/119/25
f 119/119/26 120/120/26 121/121/26
f 120/120/26 122/122/26 121/121/26
f 121/121/27 122/122/27 123/123/27
f 122/122/27 124/124/27 123/123/27
f 123/123/28 124/124/28 125/125/28
f 124/124/28 126/126/28 125/125/28
f 127/127/29 128/128/29 129/129/29
f 128/128/29 130/130/29 129/129/29
f 129/129/29 130/130/29 131/131/29
f 132/132/30 133/133/30 134/134/30
f 133/133/30 135/135/30 134/134/30
f 134/134/30 135/135/30 136/136/30
f 137/137/31 138/138/31 139/139/31
f 138/138/31 140/140/31 139/139/31
f 138/138/31 141/141/31 140/140/31
f 142/142/32 143/143/32 144/144/32
f 143/143/32 145/145/32 146/146/32
f 143/143/32 146/146/32 144/144/32
f 147/147/33 148/148/33 149/149/33
f 147/147/33 149/149/33 150/150/33
f 148/148/33 151/151/33 149/149/33
f 149/149/33 152/152/33 150/150/33
f 153/153/34 154/154/34 155/155/34
f 153/153/34 155/155/34 156/156/34
f 154/154/34 157/157/34 155/155/34
f 155/155/34 158/158/34 156/156/34
f 159/159/35 160/160/35 161/161/35
f 160/160/35 162/162/35 163/163/35
f 161/161/35 164/164/35 162/162/35
f 162/162/35 164/164/35 165/165/35
f 166/166/36 167/167/36 168/168/36
f 166/166/36 168/168/36 169/169/36
f 167/167/36 170/170/36 168/168/36
f 168/168/36 171/171/36 169/169/36
f 172/172/37 173/173/37 174/174/37
f 172/172/38 175/175/38 173/173/38
f 172/172/38 176/176/38 175/175/38
f 173/173/37 177/177/37 174/174/37
f 174/174/39 177/177/39 178/178/39
f 175/175/40 176/176/40 179/179/40
f 176/176/40 180/180/40 179/179/40
f 177/177/39 181/181/39 178/178/39
f 178/178/41 181/181/41 182/182/41
f 179/179/42 180/180/42 183/183/42
f 180/180/42 184/184/42 183/183/42
f 181/181/41 185/185/41 182/182/41
f 182/182/43 185/185/43 186/186/43
f 183/183/44 184/184/44 187/187/44
f 183/183/44 187/187/44 188/188/44
f 185/185/43 189/189/43 186/186/43
f 186/186/45 189/189/45 190/190/45
f 187/187/46 191/191/46 188/188/46
f 187/187/46 192/192/46 191/191/46
f 189/189/45 193/193/45 190/190/45
f 190/190/47 193/193/47 194/194/47
f 191/191/48 192/192/48 195/195/48
f 192/192/48 196/196/48 195/195/48
f 193/193/47 197/197/47 194/194/47
f 194/194/49 197/197/49 198/198/49
f 195/195/50 196/196/50 199/199/50
f 196/196/50 200/200/50 199/199/50
f 197/197/49 201/201/49 198/198/49
f 198/198/51 201/201/51 202/202/51
f 199/199/52 200/200/52 203/203/52
f 200/200/52 204/204/52 203/203/52
f 201/201/51 205/205/51 202/202/51
f 202/202/53 205/205/53 206/206/53
f 203/203/54 204/204/54 207/207/54
f 204/204/54 208/208/54 207/207/54
f 205/205/53 209/209/53 206/206/53
f 206/206/55 209/209/55 210/210/55
f 207/207/56 208/208/56 211/211/56
f 208/208/56 212/212/56 211/211/56
f 209/209/55 213/213/55 210/210/55
f 211/211/57 212/212/57 214/214/57
f 212/212/57 215/215/57 214/214/57
f 214/214/58 215/215/58 216/216/58
f 215/215/58 217/217/58 216/216/58
f 216/216/59 217/217/59 218/218/59
f 217/217/59 219/219/59 218/218/59
f 218/218/60 219/219/60 220/220/60
f 219/219/60 221/221/60 220/220/60
f 222/222/61 223/223/61 224/224/61
f 222/222/62 224/224/62 225/225/62
f 222/222/62 225/225/62 226/226/62
f 223/223/63 227/227/63 228/228/63
f 223/223/61 228/228/61 224/224/61
f 225/225/64 229/229/64 226/226/64
f 226/226/64 229/229/64 230/230/64
f 227/227/65 231/231/65 232/232/65
f 227/227/63 232/232/63 228/228/63
f 229/229/66 233/233/66 230/230/66
f 229/229/66 234/234/66 233/233/66
f 231/231/67 235/235/67 236/236/67
f 231/231/65 236/236/65 232/232/65
f 233/233/68 234/234/68 237/237/68
f 234/234/68 238/238/68 237/237/68
f 235/235/69 239/239/69 240/240/69
f 235/235/69 240/240/69 241/241/69
f 235/235/67 241/241/67 236/236/67
f 237/237/70 238/238/70 242/242/70
f 238/238/70 243/243/70 242/242/70
f 239/239/71 244/244/71 240/240/71
f 239/239/71 245/245/71 244/244/71
f 242/242/72 243/243/72 246/246/72
f 243/243/72 247/247/72 246/246/72
f 244/244/73 245/245/73 248/248/73
f 245/245/73 249/249/73 248/248/73
f 246/246/74 247/247/74 250/250/74
f 247/247/74 251/251/74 250/250/74
f 248/248/75 249/249/75 252/252/75
f 249/249/75 253/253/75 252/252/75
f 250/250/76 251/251/76 254/254/76
f 251/251/76 255/255/76 254/254/76
f 252/252/77 253/253/77 256/256/77
f 253/253/77 257/257/77 256/256/77
f 254/254/78 258/258/78 259/259/78
f 254/254/78 255/255/78 258/258/78
f 256/256/79 257/257/79 260/260/79
f 257/257/79 261/261/79 260/260/79
f 258/258/80 262/262/80 259/259/80
f 259/259/80 262/262/80 263/263/80
f 262/262/81 264/264/81 263/263/81
f 263/263/81 264/264/81 265/265/81
f 264/264/82 266/266/82 265/265/82
f 265/265/82 266/266/82 267/267/82
f 266/266/83 268/268/83 267/267/83
f 267/267/83 268/268/83 269/269/83
f 268/268/84 270/270/84 269/269/84
f 269/269/84 270/270/84 271/271/84
